<svg width="100" height="100" viewBox="0 0 100 100" fill="none" xmlns="http://www.w3.org/2000/svg">
<rect width="100" height="100" fill="black"/>
<path d="M47.8004 78.3C41.667 78.3 36.9004 76.9334 33.5004 74.2C30.167 71.4 28.5004 67.4667 28.5004 62.4H37.5004C37.5004 64.9334 38.4004 66.9334 40.2004 68.4C42.0004 69.8 44.5337 70.5 47.8004 70.5H52.2004C55.5337 70.5 58.1004 69.7667 59.9004 68.3C61.767 66.8334 62.7004 64.7667 62.7004 62.1C62.7004 57.3667 60.5337 54.7 56.2004 54.1L41.0004 51.9C37.267 51.3667 34.367 49.8334 32.3004 47.3C30.2337 44.7 29.2004 41.3 29.2004 37.1C29.2004 32.3 30.8337 28.5334 34.1004 25.8C37.4337 23.0667 42.0004 21.7 47.8004 21.7H52.2004C57.5337 21.7 61.867 23.0334 65.2004 25.7C68.6004 28.3 70.4337 31.7334 70.7004 36H61.6004C61.467 34.0667 60.5337 32.4667 58.8004 31.2C57.1337 29.9334 54.9337 29.3 52.2004 29.3H47.8004C44.7337 29.3 42.3337 30 40.6004 31.4C38.867 32.8 38.0004 34.7 38.0004 37.1C38.0004 40.9667 39.767 43.1667 43.3004 43.7L57.5004 45.7C66.8337 47.0334 71.5004 52.5 71.5004 62.1C71.5004 67.2334 69.8004 71.2334 66.4004 74.1C63.067 76.9 58.3337 78.3 52.2004 78.3H47.8004Z" fill="#E5E5E5"/>
</svg>
